. 
  
http://www.torrenting.com/        :     Greatest Movie Tracker on The Net!!!
 
http://www.Torrenting.com          :     Once & For all ;)


               www . Torrenting . Com 

(((((((((((((= Enjoy No RAR releases =))))))))))))))))))))


...................................NFO:....................................

.                                                                                                     
       
     
     
       
       
     
     
                                         
                                         
                EXVID                    
                                         
         
                                         
         Filled the Archives             
                                         
         
                                         
                With:                    
                                         
         
                                         
                                    
     E240                           
                                    
     SP               (C) 2009      
                                         
     
     
     
                                                                                  
                                                                                   
                La.Linea.2008.PROPER.DVDRiP.XviD-EXViD                              
                                                                                   
                                                                                  
     
                                                                                               
EXViD aims to iNTERNAL those releases which have been lost in the archives.
EXViD aims to PRE non-internal releases which have poor sources and are likely skipped by others. 
http://www.imdb.com/title/tt1111918/
Subtitles: English
Date: 2011.03

Director: James Cotten
Genre: Action | Crime | Drama
Plot: The unstable new kingpin of a Tijuana drug cartel is targeted by an assassin for elimination. 

Cast
Cast overview, first billed only:
Ray Liotta 	Ray Liotta 	... 	
Mark Shields
Andy Garcia 	Andy Garcia 	... 	
Javier Salazar
Esai Morales 	Esai Morales 	... 	
Pelon
Armand Assante 	Armand Assante 	... 	
Padre Antonio
Valerie Cruz 	Valerie Cruz 	... 	
Olivia
Jordi Vilasuso 	Jordi Vilasuso 	... 	
Diablo
Kevin Gage 	Kevin Gage 	... 	
Wire
Bruce Davison 	Bruce Davison 	... 	
Anthony
Joe Morton 	Joe Morton 	... 	
Hodges
Danny Trejo 	Danny Trejo 	... 	
Mario
Gary Daniels 	Gary Daniels 	... 	
Martin
Michael DeLorenzo 	Michael DeLorenzo 	... 	
Pablo
David Ackert 	David Ackert 	... 	
Mohommad
Jason Connery 	Jason Connery 	... 	
Randall
Victoria Elizabeth 	Victoria Elizabeth 	... 	
Ana
Full cast and crew  

Stats:
General
Format                           : AVI
Format/Info                      : Audio Video Interleave
File size                        : 696 MiB
Duration                         : 1h 32mn
Overall bit rate                 : 1 049 Kbps
Writing application              : Nandub v1.0rc2
Writing library                  : Nandub build 1853/release

Video
ID                               : 0
Format                           : MPEG-4 Visual
Format profile                   : Advanced Simple@L5
Format settings, BVOP            : Yes
Format settings, QPel            : No
Format settings, GMC             : No warppoints
Format settings, Matrix          : Default (H.263)
Codec ID                         : XVID
Codec ID/Hint                    : XviD
Duration                         : 1h 32mn
Bit rate                         : 915 Kbps
Width                            : 608 pixels
Height                           : 256 pixels
Display aspect ratio             : 2.35:1
Frame rate                       : 23.976 fps
Resolution                       : 8 bits
Colorimetry                      : 4:2:0
Scan type                        : Progressive
Bits/(Pixel*Frame)               : 0.245
Stream size                      : 607 MiB (87%)
Writing library                  : XviD 61

Audio
ID                               : 1
Format                           : MPEG Audio
Format version                   : Version 1
Format profile                   : Layer 3
Mode                             : Joint stereo
Format_Settings_ModeExtension    : MS Stereo
Codec ID                         : 55
Codec ID/Hint                    : MP3
Duration                         : 1h 32mn
Bit rate mode                    : Variable
Bit rate                         : 121 Kbps
Nominal bit rate                 : 128 Kbps
Channel(s)                       : 2 channels
Sampling rate                    : 48.0 KHz
Stream size                      : 80.4 MiB (12%)
Alignment                        : Aligned on interleaves
Interleave, duration             : 24 ms (0.58 video frame)
Interleave, preload duration     : 145 ms
Writing library                  : LAME3.90.
Encoding settings                : -m j -V 4 -q 2 -lowpass 17.6 --abr 128




Release notes:
enjoy! DvF release is 1.85 AR, ours is 2.35 AR and provides more picture.
DvF was also field shifted which our release is not.

Looking for:
75TB+ Archives
                                                                                                    
Greets: CRBS EPiSODE FiCO FLS iLS KLASSiGER LiPSYNC MADE NODLABS RUNNER SPRiNTER
   

                                                                    ASCII DONE BY XX^NFO 2oo9